<svg xmlns="http://www.w3.org/2000/svg" width="472" height="183" viewBox="0 0 472 183">
  <defs>
    <style>
      .cls-1 {
        fill-rule: evenodd;
      }
    </style>
  </defs>
  <path id="blog" class="cls-1" d="M134.3,35.947q0-21.109-19.612-21.109H48.066l-21.558,25.6H134a36.406,36.406,0,0,0,.3-4.491h0ZM35.341,50.319L15.43,118.436l81.74,0.149a45.406,45.406,0,0,0,18.564-9.88q11.078-9.13,11.977-23.953V81.757a23.958,23.958,0,0,0-1.647-9.581q-0.3-.449-4.641-7.785Q133.1,59.9,133.1,50.319H35.341Zm48.58,39.074A6.48,6.48,0,0,1,79.8,91.039H56.6l2.844-10.48H82.8q3.144,0.6,3.144,5.09A4.77,4.77,0,0,1,83.921,89.393ZM159.9,15.587l-6.887,24.7h36.23l7.485-25Zm14.971,77.548,11.976-42.966H150.464l-19.312,68.416H203.91l20.959-25.45h-50ZM339.994,35.2q0-20.509-19.312-20.51h-50.9q-9.432,0-18.264,8.533a39.046,39.046,0,0,0-10.18,17.216h98.657V35.2h0ZM303.765,50.169L292.986,86.7q-1.948,6.59-5.989,7.635H265.29A3.473,3.473,0,0,1,262.6,90.59a18.449,18.449,0,0,1,.6-3.892l10.33-36.379H238.642l-7.486,27.7a57.138,57.138,0,0,0-2.245,15.27q0,13.473,10.33,19.911,8.382,5.389,22.755,5.389h17.815q23.654,0,37.727-15.869a55.845,55.845,0,0,0,11.527-21.857Q334.9,60.2,337.3,52.415l0.6-2.4Zm74.4-34.882q-9.283,0-17.815,8.533-7.786,7.786-10.479,16.468h97.759l6.138-25h-75.6Zm19.462,38.625-15.869,25.3h22.157l-0.3,1.825q-1.5,6.54-5.989,7.757H376.371a3.765,3.765,0,0,1-2.994-3.906,15.091,15.091,0,0,1,.748-3.759l8.833-30.959H347.627l-9.282,33.008a37.664,37.664,0,0,0-1.5,9.6,29.828,29.828,0,0,0,2.395,10.952q5.84,14.856,31.888,14.853H389.1q24.849,0,37.876-15.3A51.44,51.44,0,0,0,437,83.322l7.935-29.41H397.629Z"/>
  <path id="redsols" class="cls-1" d="M237.808,139.915a5.344,5.344,0,0,0-1.729-1.852,4.017,4.017,0,0,0-2.265-.779H206.1l-5.163,8.087h37.753a12.215,12.215,0,0,0-.877-5.456h0Zm-34.636,8.719L196.645,170.9H208l4.141-13.445h11.5l-3.9,13.445h10.912q2.339-6.981,2.534-8.251a20.944,20.944,0,0,0,.341-3.173,6.8,6.8,0,0,0-1.121-3.711,6.963,6.963,0,0,0,2.29-1.513,9.148,9.148,0,0,0,3.41-5.615H203.172Zm42.431-11.35-5.262,8.184H272.1l2.144-8.184H245.6Zm-3.264,11.35L236.4,170.9h28.6l2.338-8.769H251.643l1.267-4.628h15.832l2.338-8.866H242.339Zm64.643-8.841a8.792,8.792,0,0,0-5.991-2.509H281.359l-5.213,8.184H309.9A8.028,8.028,0,0,0,306.982,139.793Zm-6.868,8.841a22.423,22.423,0,0,1-.78,5.68,11.28,11.28,0,0,1-5.553,6.845,10.2,10.2,0,0,1-5.066,1.5,6.411,6.411,0,0,1-2.485-.485l4.043-13.545H278.29L271.908,170.9h19.34a18.042,18.042,0,0,0,11.058-3.257,23.942,23.942,0,0,0,4.871-5.59q3.312-4.86,3.313-13.416H300.114Zm25.477-11.35a9.2,9.2,0,0,0-6.04,2.582,12.4,12.4,0,0,0-3.751,5.5h31.566l2.193-8.087H325.591Zm19.778,21.093a14.361,14.361,0,0,0-.925-5.31q-2.437-2.727-2.631-2.874-1.365-1.071-5.31-1.559H314.971v1.705q0,3.46,1.413,4.994a5.827,5.827,0,0,0,4.482,1.534h9.4a3.084,3.084,0,0,1,1.485.828,3.039,3.039,0,0,1,.317,1.657q0,2.046-2.387,2.338H311.269l-2.582,9.159,26.6,0.048a13.174,13.174,0,0,0,6.041-3.118h0a12.79,12.79,0,0,0,4.043-9.4h0Zm39.751-14.614q0-6.674-6.284-6.674H362.273a8.56,8.56,0,0,0-5.943,2.777,12.705,12.705,0,0,0-3.313,5.6h32.1v-1.7h0Zm-11.789,4.871-3.508,11.887q-0.633,2.143-1.948,2.484h-7.064a1.131,1.131,0,0,1-.877-1.218,6.008,6.008,0,0,1,.195-1.266l3.362-11.838H352.14L349.7,157.7a18.6,18.6,0,0,0-.73,4.969,7.094,7.094,0,0,0,3.361,6.479,13.577,13.577,0,0,0,7.405,1.754h5.8q7.7,0,12.276-5.164a18.189,18.189,0,0,0,3.751-7.112q1.9-6.723,2.679-9.256l0.195-.779ZM391.4,137.381l-2.241,8.038h11.789l2.436-8.135Zm4.872,25.234,3.9-13.981H388.334L382.05,170.9h23.675l6.82-8.282h-16.27Zm31.956-25.331a9.2,9.2,0,0,0-6.04,2.582,12.4,12.4,0,0,0-3.751,5.5h31.566l2.193-8.087H428.231Zm19.778,21.093a14.361,14.361,0,0,0-.925-5.31q-2.437-2.727-2.631-2.874-1.365-1.071-5.31-1.559H417.611v1.705q0,3.46,1.413,4.994a5.827,5.827,0,0,0,4.482,1.534h9.4a3.094,3.094,0,0,1,1.486.828,3.05,3.05,0,0,1,.316,1.657q0,2.046-2.387,2.338H413.909l-2.582,9.159,26.6,0.048a13.174,13.174,0,0,0,6.041-3.118h0a12.79,12.79,0,0,0,4.043-9.4h0Z"/>
</svg>
